<svg width="367" height="503" viewBox="0 0 367 503" fill="none" xmlns="http://www.w3.org/2000/svg">
<g clip-path="url(#clip0_98_208)">
<rect width="367" height="503" rx="20" fill="#609EAF"/>
<path d="M190.555 -222C190.513 -192.049 192.277 -161.968 198.477 -132.665C200.487 -123.165 202.985 -113.697 207.18 -104.939C215.734 -87.0809 230.745 -73.2848 242.396 -57.2737C257.194 -36.9396 266.488 -12.6891 269.339 12.2824C271.484 31.0723 271.53 53.8233 279.537 71.2805C286.81 87.1393 310.31 93.5318 323.988 102.651C337.996 111.992 348.93 125.661 355.511 141.116C358.959 149.212 361.231 157.823 362.123 166.582C362.975 174.957 360.438 184.486 370.223 188.444C373.457 189.752 377.054 189.73 380.474 190.418C392.362 192.81 401.435 204.964 400.348 217.041M190.731 -220.8C190.185 -191.187 191.665 -161.234 197.814 -132.082C199.857 -122.371 202.546 -112.796 206.696 -103.805C211.716 -92.9632 219.014 -83.5237 226.586 -74.2245C231.755 -67.8763 237.052 -61.5938 241.841 -54.976C251.301 -41.902 258.746 -27.3866 263.925 -12.2426C266.952 -3.38739 269.203 5.68228 270.618 14.8231C271.624 21.2366 272.397 28.0909 273.328 35.0268C274.649 44.7744 276.287 54.6837 279.262 63.8602C280.327 67.1567 281.564 70.3579 283.024 73.4118C289.065 86.0317 304.682 93.1273 317.521 100.332C320.97 102.258 324.219 104.193 327.033 106.246C338.633 114.659 347.914 126.129 354.172 139.085C355.25 141.315 356.239 143.59 357.136 145.904C360.334 154.153 362.387 162.904 363.197 171.801C363.676 177.069 362.929 182.767 364.586 187.349C365.606 190.17 367.541 192.548 371.209 194.162C374.415 195.572 377.979 195.71 381.383 196.521C393.209 199.331 402.4 211.553 401.547 223.797M190.908 -219.601C189.857 -190.325 191.055 -160.501 197.153 -131.497C199.227 -121.575 202.108 -111.895 206.214 -102.67C211.171 -91.6026 218.401 -81.9023 225.961 -72.3668C231.123 -65.8551 236.439 -59.4196 241.289 -52.6777C250.874 -39.3622 258.614 -24.7226 264.253 -9.58133C267.55 -0.729056 270.122 8.29518 271.901 17.3644C273.174 23.7353 274.232 30.5191 275.446 37.3732C277.173 47.0111 279.221 56.7931 282.495 65.9671C283.662 69.2589 284.985 72.468 286.515 75.5463C292.864 88.2856 308.285 95.8591 320.822 103.559C324.188 105.61 327.343 107.677 330.079 109.844C341.303 118.736 350.178 130.524 356.013 143.744C357.019 146.018 357.934 148.338 358.761 150.694C361.711 159.096 363.545 167.988 364.271 177.022C364.701 182.375 363.979 188.144 365.636 192.832C366.658 195.721 368.589 198.164 372.196 199.883C375.374 201.397 378.903 201.692 382.292 202.627C394.055 205.855 403.366 218.145 402.745 230.553M191.084 -218.403C189.53 -189.464 190.443 -159.768 196.491 -130.915C198.598 -120.781 201.669 -110.997 205.73 -101.538C210.622 -90.2427 217.786 -80.2821 225.333 -70.5104C230.487 -63.8345 235.821 -57.2471 240.736 -50.3815C250.443 -36.8247 258.482 -22.0606 264.58 -6.92377C268.146 1.92726 271.015 10.911 273.183 19.903C274.708 26.2352 276.067 32.9451 277.563 39.7161C279.698 49.2452 282.154 58.898 285.727 68.0687C286.995 71.355 288.406 74.5738 290.003 77.6753C296.661 90.535 311.864 98.6172 324.123 106.781C327.401 108.963 330.47 111.151 333.125 113.436C343.986 122.786 352.443 134.914 357.853 148.397C358.785 150.716 359.629 153.079 360.386 155.478C363.085 164.033 364.7 173.065 365.343 182.236C365.723 187.674 365.026 193.512 366.684 198.307C367.707 201.265 369.633 203.774 373.183 205.597C376.333 207.215 379.828 207.667 383.201 208.726C394.903 212.371 404.332 224.728 403.944 237.304M191.261 -217.203C189.202 -188.602 189.832 -159.034 195.827 -130.331C197.966 -119.985 201.21 -110.089 205.246 -100.403C210.052 -88.8723 217.17 -78.6612 224.705 -68.6515C229.85 -61.8133 235.203 -55.0722 240.18 -48.0831C250.01 -34.2841 258.345 -19.3958 264.904 -4.26241C268.74 4.5857 271.923 13.528 274.461 22.4445C276.251 28.7367 277.898 35.3727 279.675 42.0633C282.217 51.4827 285.083 61.0082 288.955 70.1758C290.326 73.4574 291.823 76.6849 293.489 79.809C300.454 92.7881 315.454 101.356 327.42 110.007C330.615 112.316 333.594 114.628 336.168 117.032C346.664 126.838 354.703 139.306 359.691 153.054C360.551 155.418 361.322 157.825 362.008 160.265C364.458 168.973 365.855 178.146 366.415 187.455C366.746 192.976 366.074 198.884 367.733 203.788C368.756 206.814 370.678 209.389 374.168 211.315C377.29 213.038 380.75 213.647 384.107 214.829C395.748 218.892 405.296 231.317 405.141 244.058M191.437 -216.005C188.874 -187.741 189.22 -158.302 195.165 -129.748C197.337 -119.19 200.768 -109.187 204.764 -99.2702C209.501 -87.511 216.556 -77.0408 224.079 -66.7948C229.217 -59.7924 234.587 -52.8994 239.628 -45.7866C249.581 -31.7463 258.214 -16.7345 265.233 -1.60385C269.337 7.24302 272.837 16.1416 275.743 24.9831C277.797 31.2338 279.717 37.803 281.792 44.407C284.72 53.7246 288.038 63.1035 292.187 72.2783C293.668 75.5516 295.243 78.7907 296.979 81.9392C304.253 95.0387 319.05 104.09 330.722 113.231C333.832 115.666 336.723 118.104 339.216 120.627C349.349 130.886 356.969 143.697 361.533 157.71C362.32 160.118 363.019 162.568 363.635 165.053C365.835 173.914 367.014 183.228 367.491 192.674C367.772 198.28 367.126 204.258 368.784 209.268C369.808 212.364 371.726 215.005 375.156 217.033C378.25 218.862 381.676 219.628 385.018 220.932C396.596 225.413 406.262 237.906 406.341 250.814M191.613 -214.805C188.546 -186.879 188.608 -157.568 194.502 -129.164C196.705 -118.396 200.325 -108.286 204.279 -98.1358C208.948 -86.1485 215.942 -75.4195 223.451 -64.9367C228.582 -57.7708 233.97 -50.7242 239.073 -43.489C249.148 -29.2064 258.078 -14.0705 265.559 1.05608C269.932 9.90005 273.749 18.7576 277.023 27.5231C279.343 33.7333 281.548 40.2306 283.907 46.7512C287.239 55.962 290.972 65.2086 295.418 74.3823C297.001 77.6494 298.662 80.8995 300.468 84.0698C308.049 97.2887 322.643 106.823 334.022 116.455C337.047 119.015 339.85 121.577 342.261 124.221C352.031 134.932 359.232 148.088 363.373 162.366C364.088 164.819 364.714 167.312 365.261 169.839C367.211 178.852 368.171 188.307 368.565 197.892C368.797 203.581 368.175 209.63 369.835 214.747C370.858 217.91 372.773 220.621 376.144 222.751C379.21 224.687 382.602 225.606 385.927 227.033C397.444 231.933 407.23 244.492 407.539 257.566M191.79 -213.606C188.22 -186.016 187.998 -156.836 193.841 -128.58C196.076 -117.6 199.885 -107.385 203.798 -97.0018C208.4 -84.7869 215.329 -73.7981 222.826 -63.079C227.949 -55.749 233.356 -48.5504 238.523 -41.1914C248.72 -26.6676 257.948 -11.4072 265.887 3.71566C270.529 12.5574 274.664 21.3732 278.306 30.0637C280.892 36.2343 283.383 42.6598 286.025 49.0977C289.762 58.2011 293.908 67.3151 298.651 76.4876C300.336 79.7484 302.084 83.0089 303.959 86.2027C311.849 99.542 326.238 109.557 337.325 119.679C340.266 122.364 342.979 125.052 345.309 127.817C354.718 138.977 361.499 152.48 365.215 167.023C365.858 169.52 366.411 172.058 366.888 174.626C368.589 183.792 369.33 193.389 369.642 203.11C369.824 208.884 369.227 215.003 370.887 220.227C371.912 223.459 373.822 226.239 377.135 228.468C380.173 230.512 383.53 231.585 386.839 233.135C398.295 238.451 408.198 251.08 408.742 264.32M191.967 -212.407C187.892 -185.155 187.386 -156.103 193.178 -127.997C195.445 -116.805 199.443 -106.486 203.313 -95.8683C207.849 -83.4266 214.713 -72.1772 222.197 -61.2212C227.312 -53.7288 232.736 -46.3765 237.966 -38.8931C248.287 -24.1271 257.812 -8.74324 266.212 6.37689C271.123 15.2167 275.576 23.9901 279.585 32.6051C282.437 38.7354 285.212 45.0887 288.137 51.4432C292.28 60.4398 296.839 69.4212 301.879 78.5929C303.668 81.8483 305.501 85.1173 307.445 88.3346C315.643 101.793 329.83 112.288 340.623 122.904C343.48 125.714 346.104 128.527 348.353 131.411C357.402 143.02 363.76 156.871 367.052 171.678C367.621 174.22 368.102 176.8 368.51 179.413C369.961 188.731 370.484 198.469 370.712 208.328C370.845 214.186 370.274 220.375 371.934 225.707C372.96 229.007 374.864 231.859 378.118 234.185C381.128 236.338 384.452 237.564 387.744 239.238C399.139 244.972 409.16 257.669 409.936 271.074M192.143 -211.208C187.564 -184.293 186.774 -155.37 192.516 -127.412C194.815 -116.009 199.002 -105.584 202.831 -94.7326C207.3 -82.064 214.099 -70.5541 221.571 -59.3618C226.678 -51.7052 232.123 -44.2007 237.415 -36.5949C247.858 -21.5875 257.68 -6.07857 266.54 9.03649C271.72 17.8741 276.492 26.6051 280.866 35.1454C283.986 41.2355 287.045 47.5176 290.254 53.7887C294.803 62.6779 299.774 71.5274 305.112 80.6981C307.003 83.9474 308.922 87.2267 310.936 90.4675C319.442 104.047 333.427 115.021 343.925 126.131C346.698 129.064 349.234 132.003 351.401 135.008C360.089 147.063 366.026 161.264 368.895 176.336C369.392 178.922 369.801 181.547 370.138 184.202C371.339 193.673 371.642 203.551 371.788 213.549C371.871 219.49 371.326 225.75 372.986 231.189C374.012 234.558 375.912 237.481 379.108 239.906C382.09 242.169 385.379 243.547 388.657 245.343C399.989 251.494 410.13 264.259 411.139 277.831M192.32 -210.009C187.236 -183.433 186.162 -154.637 191.853 -126.83C194.185 -115.215 198.561 -104.685 202.347 -93.5998C206.751 -80.7033 213.484 -68.9348 220.944 -57.5043C226.044 -49.6843 231.506 -42.0271 236.861 -34.2969C247.427 -19.0473 257.547 -3.41483 266.867 11.6975C272.316 20.5331 277.408 29.2211 282.147 37.6865C285.534 43.7356 288.877 49.9472 292.369 56.1355C297.325 64.9177 302.707 73.6349 308.342 82.8045C310.335 86.0475 312.34 89.3372 314.423 92.6005C323.237 106.299 337.02 117.751 347.224 129.357C349.913 132.415 352.36 135.477 354.445 138.605C362.776 151.103 368.288 165.657 370.734 180.994C371.158 183.626 371.495 186.293 371.761 188.99C372.713 198.614 372.798 208.634 372.861 218.767C372.894 224.793 372.373 231.123 374.034 236.669C375.061 240.107 376.955 243.102 380.093 245.624C383.046 247.997 386.298 249.533 389.563 251.446C400.82 258.04 411.093 270.848 412.336 284.586M192.497 -208.81C186.909 -182.57 185.552 -153.904 191.191 -126.247C193.556 -114.42 198.122 -103.785 201.865 -92.4668C206.203 -79.3442 212.87 -67.3144 220.318 -55.6476C225.41 -47.6635 230.891 -39.8544 236.31 -32.0004C246.998 -16.5096 257.416 -0.752559 267.195 14.356C272.913 23.1894 278.327 31.8356 283.429 40.2251C287.084 46.2333 290.712 52.3737 294.486 58.4783C299.848 67.1524 305.64 75.7391 311.574 84.9071C313.67 88.1454 315.761 91.443 317.914 94.7307C327.036 108.55 340.619 120.478 350.527 132.58C353.132 135.761 355.492 138.948 357.493 142.199C365.467 155.141 370.555 170.048 372.577 185.649C372.928 188.325 373.191 191.036 373.389 193.776C374.091 203.552 373.958 213.714 373.936 223.985C373.92 230.094 373.425 236.495 375.086 242.148C376.113 245.654 378.002 248.723 381.082 251.34C384.007 253.825 387.225 255.511 390.476 257.546C401.67 264.558 412.062 277.434 413.537 291.338M192.673 -207.61C186.582 -181.708 184.94 -153.169 190.528 -125.661C192.924 -113.624 197.681 -102.884 201.38 -91.3307C205.653 -77.9819 212.255 -65.6915 219.69 -53.7878C224.774 -45.6412 230.273 -37.6785 235.754 -29.7011C246.565 -13.968 257.28 1.91317 267.52 17.0183C273.507 25.8498 279.241 34.4529 284.709 42.7685C288.631 48.7357 292.544 54.8049 296.601 60.8268C302.371 69.3938 308.572 77.8489 314.804 87.0144C317.002 90.2464 319.18 93.5544 321.4 96.8653C330.83 110.804 344.214 123.208 353.824 135.807C356.345 139.112 358.617 142.424 360.535 145.796C368.154 159.18 372.815 174.441 374.413 190.307C374.691 193.028 374.883 195.783 375.01 198.566C375.462 208.496 375.111 218.797 375.006 229.207C374.941 235.4 374.47 241.871 376.132 247.631C377.161 251.205 379.043 254.349 382.066 257.062C384.96 259.659 388.146 261.494 391.381 263.653C402.512 271.082 413.025 284.026 414.733 298.097M192.85 -206.412C186.254 -180.847 184.383 -152.449 189.866 -125.079C192.318 -112.835 197.243 -101.985 200.897 -90.1986C205.107 -76.6232 211.641 -64.072 219.063 -51.9313C224.139 -43.6206 229.656 -35.5049 235.201 -27.4048C246.135 -11.4304 257.147 4.57418 267.847 19.6759C274.103 28.5052 280.16 37.0641 285.99 45.3061C290.182 51.2318 294.379 57.2298 298.716 63.1693C304.893 71.6292 311.503 79.9517 318.035 89.1167C320.335 92.3432 322.6 95.6609 324.889 98.9953C334.628 113.054 347.812 125.933 357.125 139.03C359.563 142.458 361.746 145.894 363.582 149.389C370.847 163.215 375.079 178.831 376.254 194.96C376.461 197.726 376.58 200.525 376.636 203.35C376.838 213.432 376.269 223.875 376.082 234.422C375.967 240.699 375.522 247.24 377.184 253.108C378.213 256.75 380.088 259.969 383.054 262.776C385.918 265.486 389.072 267.47 392.29 269.751C403.358 277.599 413.991 290.611 415.931 304.846M193.027 -205.213C185.926 -179.985 183.773 -151.716 189.204 -124.495C191.69 -112.04 196.805 -101.086 200.416 -89.0645C204.561 -75.2627 211.028 -62.4505 218.437 -50.0736C223.507 -41.5994 229.042 -33.3311 234.649 -25.1065C245.707 -8.89061 257.014 7.23888 268.176 22.3372C274.701 31.1646 281.081 39.6801 287.272 47.8475C291.734 53.7319 296.214 59.6591 300.833 65.5158C307.419 73.868 314.437 82.0602 321.268 91.223C323.67 94.4448 326.02 97.771 328.38 101.128C338.426 115.307 351.412 128.661 360.428 142.255C362.783 145.808 364.878 149.368 366.631 152.985C373.544 167.252 377.346 183.224 378.097 199.618C378.231 202.428 378.277 205.27 378.264 208.139C378.216 218.373 377.428 228.958 377.158 239.642C376.994 246.003 376.574 252.614 378.236 258.589C379.266 262.301 381.133 265.595 384.043 268.496C386.877 271.32 389.998 273.45 393.202 275.855C404.208 284.12 414.959 297.2 417.133 311.602M193.202 -204.014C185.599 -179.123 183.16 -150.983 188.541 -123.912C191.059 -111.246 196.365 -100.187 199.931 -87.9312C204.013 -73.9029 210.412 -60.8297 217.809 -48.2165C222.87 -39.5782 228.423 -31.158 234.094 -22.8106C245.274 -6.3535 256.88 9.90048 268.501 24.9961C275.295 33.8212 281.998 42.2926 288.552 50.3864C293.283 56.2292 298.047 62.0853 302.948 67.8599C309.942 76.1027 317.367 84.1663 324.498 93.3259C327.002 96.5421 329.439 99.878 331.868 103.258C342.222 117.556 355.011 131.384 363.727 145.478C366 149.152 368.007 152.838 369.676 156.579C376.237 171.285 379.609 187.614 379.936 204.274C379.997 207.129 379.97 210.014 379.887 212.925C379.59 223.312 378.582 234.037 378.23 244.859C378.017 251.305 377.62 257.986 379.284 264.069C380.314 267.849 382.173 271.219 385.028 274.213C387.831 277.151 390.921 279.43 394.109 281.958C405.053 290.64 415.924 303.788 418.329 318.356M193.379 -202.815C185.272 -178.262 182.495 -150.239 187.88 -123.328C190.404 -110.444 195.928 -99.2863 199.449 -86.7971C203.468 -72.5422 209.798 -59.2091 217.184 -46.3587C222.237 -37.5579 227.809 -28.9847 233.542 -20.5123C244.846 -3.81291 256.749 12.5645 268.83 27.6557C275.893 36.4789 282.919 44.9052 289.835 52.9271C294.837 58.727 299.884 64.5132 305.065 70.2054C312.468 78.3404 320.3 86.2739 327.731 95.4312C330.336 98.6419 332.861 101.988 335.359 105.391C346.021 119.809 358.613 134.111 367.03 148.704C369.219 152.502 371.139 156.313 372.723 160.175C378.935 175.321 381.874 192.007 381.778 208.931C381.766 211.829 381.668 214.76 381.515 217.714C380.968 228.253 379.742 239.119 379.307 250.079C379.044 256.609 378.673 263.36 380.336 269.549C381.368 273.396 383.218 276.845 386.019 279.931C388.789 282.982 391.854 285.402 395.021 288.061C405.921 297.138 416.892 310.376 419.532 325.11M193.556 -201.615C184.944 -177.4 181.883 -149.505 187.217 -122.744C189.774 -109.65 195.489 -98.387 198.965 -85.6626C202.921 -71.1819 209.184 -57.5878 216.555 -44.4998C221.6 -35.535 227.192 -26.8088 232.988 -18.2136C244.413 -1.273 256.614 15.2296 269.155 30.3174C276.487 39.1384 283.837 47.5199 291.115 55.4689C296.386 61.2265 301.718 66.9405 307.18 72.5524C314.991 80.5779 323.231 88.3828 330.961 97.5369C333.668 100.742 336.279 104.096 338.847 107.523C349.817 122.062 362.215 136.836 370.329 151.929C372.436 155.85 374.268 159.784 375.768 163.77C381.632 179.356 384.137 196.398 383.617 213.587C383.532 216.531 383.361 219.503 383.139 222.5C382.343 233.192 380.898 244.199 380.38 255.297C380.068 261.911 379.722 268.732 381.385 275.028C382.418 278.944 384.258 282.47 387.005 285.648C389.742 288.814 392.778 291.381 395.929 294.162C406.767 303.657 417.857 316.964 420.73 331.864M193.732 -200.417C184.616 -176.539 181.271 -148.773 186.553 -122.162C189.142 -108.855 195.05 -97.4885 198.481 -84.5298C202.374 -69.8233 208.568 -55.9677 215.927 -42.6434C220.966 -33.5151 226.574 -24.6363 232.433 -15.9177C243.982 1.26522 256.48 17.8913 269.48 32.9754C277.082 41.7944 284.755 50.1292 292.394 58.0069C297.936 63.7216 303.55 69.3657 309.293 74.8946C317.515 82.811 326.159 90.4877 334.19 99.6396C336.998 102.84 339.697 106.203 342.333 109.653C353.612 124.312 365.815 139.56 373.627 155.152C375.653 159.195 377.398 163.255 378.812 167.364C384.33 183.389 386.399 200.788 385.456 218.241C385.299 221.229 385.055 224.245 384.763 227.285C383.717 238.129 382.053 249.278 381.452 260.511C381.091 267.209 380.77 274.101 382.434 280.504C383.466 284.489 385.296 288.092 387.99 291.362C390.694 294.644 393.701 297.357 396.836 300.262C407.614 310.175 418.822 323.548 421.926 338.615M193.909 -199.217C184.289 -175.677 180.66 -148.04 185.892 -121.578C188.514 -108.059 194.615 -96.5878 197.999 -83.3941C201.829 -68.4618 207.955 -54.3446 215.302 -40.784C220.332 -31.4916 225.959 -22.4609 231.882 -13.6185C243.553 3.80565 256.348 20.5569 269.81 35.6369C277.68 44.4537 285.678 52.743 293.678 60.5485C299.49 66.2192 305.389 71.7938 311.411 77.2419C320.042 85.049 329.093 92.5977 337.423 101.746C340.333 104.941 343.119 108.314 345.824 111.786C357.411 126.565 369.42 142.286 376.929 158.378C378.874 162.545 380.53 166.728 381.86 170.96C387.033 187.426 388.666 205.182 387.298 222.899C387.068 225.932 386.752 228.993 386.39 232.074C385.093 243.072 383.212 254.361 382.527 265.732C382.116 272.514 381.821 279.476 383.484 285.987C384.518 290.041 386.336 293.721 388.977 297.083C391.648 300.481 394.627 303.339 397.745 306.368C408.461 316.698 419.788 330.14 423.126 345.373M194.086 -198.019C183.961 -174.815 180.049 -147.307 185.23 -120.995C187.883 -107.265 194.177 -95.69 197.516 -82.2621C201.284 -67.103 207.341 -52.7251 214.676 -38.9283C219.699 -29.4724 225.343 -20.289 231.328 -11.3232C243.122 6.34314 256.215 23.2179 270.136 38.2941C278.276 47.109 286.597 55.3516 294.958 63.0859C301.041 68.7136 307.222 74.2168 313.526 79.5844C322.567 87.2814 332.023 94.7029 340.654 103.848C343.665 107.039 346.538 110.419 349.313 113.916C361.209 128.815 373.025 145.009 380.23 161.601C382.093 165.889 383.663 170.198 384.906 174.553C389.734 191.46 390.929 209.571 389.139 227.553C388.836 230.631 388.447 233.734 388.015 236.86C386.47 248.011 384.369 259.439 383.602 270.95C383.14 277.815 382.871 284.848 384.534 291.466C385.568 295.588 387.375 299.347 389.965 302.799C392.601 306.313 395.552 309.317 398.656 312.468C409.31 323.216 420.754 336.726 424.326 352.125M194.262 -196.819C183.633 -173.953 179.438 -146.573 184.567 -120.41C187.253 -106.468 193.74 -94.7895 197.031 -81.126C200.738 -65.7417 206.725 -51.1016 214.046 -37.0678C219.061 -27.4488 224.725 -18.1115 230.773 -9.02298C242.69 8.88465 256.081 25.8839 270.461 40.9574C278.869 49.77 287.516 57.9655 296.238 65.6302C302.591 71.214 309.056 76.6467 315.641 81.9329C325.091 89.5188 334.953 96.815 343.885 105.956C346.997 109.142 349.958 112.531 352.802 116.051C365.004 131.069 376.629 147.737 383.531 164.829C385.311 169.241 386.795 173.675 387.952 178.152C392.437 195.498 393.193 213.966 390.979 232.213C390.603 235.336 390.142 238.483 389.64 241.65C387.845 252.954 385.526 264.524 384.676 276.171C384.165 283.12 383.921 290.223 385.584 296.949C386.62 301.138 388.414 304.977 390.953 308.521C393.553 312.15 396.478 315.3 399.565 318.574C410.157 329.741 421.72 343.318 425.525 358.882M194.439 -195.62C183.306 -173.092 178.826 -145.84 183.905 -119.827C186.622 -105.674 193.303 -93.8907 196.549 -79.993C200.195 -64.3825 206.111 -49.4821 213.421 -35.2111C218.428 -25.4286 224.11 -15.9394 230.221 -6.72573C242.26 11.4241 255.947 28.5466 270.79 43.616C279.467 52.4267 288.438 60.5748 297.52 68.1688C304.144 73.7081 310.893 79.0718 317.757 84.2774C327.617 91.7532 337.883 98.9228 347.116 108.06C350.33 111.241 353.377 114.64 356.29 118.183C368.802 133.321 380.236 150.461 386.831 168.052C388.531 172.587 389.927 177.145 390.998 181.746C395.141 199.532 395.457 218.356 392.818 236.868C392.37 240.035 391.837 243.226 391.264 246.436C389.22 257.892 386.682 269.603 385.748 281.388C385.188 288.421 384.969 295.595 386.633 302.427C387.669 306.686 389.45 310.602 391.939 314.237C394.503 317.983 397.401 321.278 400.473 324.674C411.003 336.258 422.686 349.904 426.722 365.634M194.616 -194.422C182.978 -172.231 178.215 -145.108 183.243 -119.244C185.993 -104.88 192.895 -92.9985 196.067 -78.8599C199.681 -63.0305 205.498 -47.8622 212.795 -33.3543C217.794 -23.4077 223.495 -13.7665 229.669 -4.43006C241.83 13.9611 255.815 31.2079 271.118 46.2746C280.064 55.0831 289.36 63.1831 298.802 70.7075C305.697 76.2022 312.729 81.4961 319.874 86.6203C330.142 93.985 340.797 101.048 350.349 110.162C353.658 113.345 356.798 116.745 359.78 120.312C372.599 135.57 383.843 153.184 390.132 171.275C391.751 175.933 393.059 180.616 394.045 185.339C397.846 203.566 397.722 222.747 394.66 241.522C394.14 244.734 393.533 247.968 392.891 251.222C390.597 262.831 387.84 274.683 386.824 286.606C386.215 293.723 386.021 300.966 387.685 307.907C388.721 312.234 390.49 316.228 392.927 319.954C395.455 323.817 398.327 327.257 401.383 330.776C411.852 342.779 423.653 356.491 427.922 372.389M194.792 -193.222C182.651 -171.368 177.604 -144.374 182.58 -118.66C185.362 -104.084 192.455 -92.0976 195.582 -77.7254C199.133 -61.6696 204.883 -46.2403 212.167 -31.4961C217.159 -21.3861 222.877 -11.5922 229.114 -2.13143C241.399 16.5019 255.68 33.873 271.443 48.9352C280.658 57.7418 290.278 65.7934 300.081 73.2483C307.247 78.6983 314.571 83.9087 321.988 88.9661C332.679 96.2008 343.728 103.156 353.578 112.267C356.989 115.444 360.216 118.854 363.268 122.444C376.396 137.823 387.449 155.91 393.432 174.5C394.97 179.281 396.191 184.089 397.089 188.935C400.55 207.602 399.984 227.139 396.498 246.179C395.905 249.436 395.226 252.714 394.514 256.009C391.97 267.771 388.995 279.764 387.896 291.824C387.237 299.026 387.068 306.339 388.733 313.387C389.77 317.783 391.525 321.856 393.914 325.672C396.404 329.652 399.252 333.236 402.291 336.88C412.698 349.299 424.619 363.08 429.121 379.144M194.968 -192.024C182.323 -170.507 176.991 -143.642 181.917 -118.077C184.731 -103.29 192.015 -91.1985 195.099 -76.5928C198.585 -60.3097 204.268 -44.6202 211.538 -29.6391C216.522 -19.3659 222.26 -9.41808 228.56 0.165484C240.968 19.0411 255.547 36.5356 271.769 51.5951C281.253 60.3995 291.198 68.4023 301.362 75.7892C308.799 81.1937 316.405 86.3359 324.103 91.3129C335.202 98.4382 346.66 105.265 356.809 114.374C360.323 117.546 363.636 120.965 366.757 124.577C380.192 140.075 391.057 158.636 396.732 177.727C398.19 182.63 399.325 187.563 400.136 192.531C403.256 211.641 402.249 231.532 398.34 250.837C397.674 254.137 396.923 257.459 396.14 260.798C393.347 272.712 390.153 284.846 388.97 297.043C388.262 304.329 388.118 311.713 389.783 318.867C390.821 323.332 392.562 327.484 394.901 331.39C397.353 335.487 400.176 339.216 403.201 342.982C413.546 355.82 425.584 369.668 430.319 385.898M195.145 -190.825C181.996 -169.645 176.381 -142.909 181.255 -117.493C184.102 -102.494 191.578 -90.298 194.616 -75.458C198.039 -58.9485 203.654 -42.998 210.912 -27.7807C215.888 -17.3434 221.644 -7.24362 228.007 2.46337C240.537 21.5803 255.414 39.1993 272.096 54.2544C281.85 63.0568 292.118 71.0112 302.643 78.3285C310.351 83.6884 318.238 88.7622 326.219 93.6564C337.725 100.672 349.592 107.372 360.039 116.477C363.654 119.643 367.055 123.072 370.245 126.708C383.988 142.326 394.664 161.361 400.032 180.949C401.409 185.976 402.457 191.034 403.181 196.124C405.963 215.675 404.512 235.921 400.179 255.491C399.44 258.837 398.617 262.201 397.764 265.583C394.721 277.65 391.309 289.925 390.043 302.26C389.285 309.63 389.166 317.083 390.832 324.346C391.871 328.877 393.596 333.109 395.886 337.107C398.3 341.319 401.1 345.194 404.108 349.083C414.392 362.34 426.548 376.256 431.517 392.651M195.322 -189.625C181.668 -168.783 175.769 -142.175 180.593 -116.909C183.472 -101.699 191.139 -89.3979 194.133 -74.3243C197.492 -57.5882 203.039 -41.3769 210.286 -25.9223C215.255 -15.3215 221.028 -5.06909 227.454 4.76232C240.108 24.1208 255.281 41.8646 272.423 56.9163C282.445 65.7165 293.051 73.6046 303.923 80.8713C311.91 86.1726 320.071 91.1911 328.335 96.0042C340.249 102.911 352.524 109.481 363.271 118.584C366.988 121.746 370.475 125.183 373.734 128.842C387.785 144.58 398.309 164.08 403.332 184.177C404.638 189.324 405.59 194.509 406.227 199.723C408.67 219.716 406.776 240.317 402.02 260.15C401.209 263.54 400.312 266.949 399.39 270.373C396.097 282.593 392.467 295.009 391.118 307.481C390.312 314.935 390.217 322.459 391.883 329.828C392.923 334.429 394.633 338.738 396.875 342.828C399.249 347.157 402.026 351.177 405.018 355.19C415.24 368.863 427.516 382.847 432.717 399.408M195.498 -188.427C181.341 -167.922 175.158 -141.442 179.931 -116.326C182.841 -100.904 190.7 -88.4977 193.649 -73.1905C196.945 -56.228 202.426 -39.7563 209.659 -24.0648C214.62 -13.2999 220.411 -2.89552 226.901 7.05964C239.678 26.6593 255.149 44.5277 272.751 59.5766C283.042 68.3739 293.969 76.2165 305.205 83.4116C313.461 88.6697 321.906 93.6177 330.45 98.3494C342.771 105.146 355.456 111.589 366.502 120.689C370.321 123.845 373.895 127.292 377.223 130.974C391.582 146.832 401.911 166.808 406.633 187.401C407.856 192.673 408.733 197.981 409.273 203.317C411.419 223.749 409.04 244.707 403.86 264.805C402.975 268.24 402.007 271.693 401.016 275.159C397.473 287.531 393.623 300.088 392.192 312.698C391.336 320.236 391.266 327.83 392.933 335.307C393.973 339.976 395.668 344.365 397.863 348.544C400.198 352.989 402.952 357.154 405.928 361.289C416.088 375.381 428.483 389.432 433.916 406.16M195.675 -187.227C181.013 -167.06 174.548 -140.709 179.269 -115.743C182.212 -100.11 190.262 -87.5981 193.168 -72.0563C196.398 -54.8666 201.812 -38.1357 209.034 -22.2069C213.987 -11.2796 219.798 -0.721286 226.349 9.35698C239.248 29.1989 255.017 47.1908 273.079 62.2353C283.639 71.0313 294.888 78.8279 306.487 85.9504C315.011 91.1658 323.74 96.0443 332.567 100.693C345.296 107.382 358.389 113.695 369.734 122.792C373.656 125.943 377.316 129.399 380.713 133.104C395.381 149.082 405.514 169.536 409.935 190.625C411.077 196.019 411.866 201.454 412.321 206.911C414.116 227.788 411.307 249.097 405.702 269.461C404.746 272.94 403.705 276.436 402.643 279.945C398.85 292.47 394.782 305.168 393.268 317.916C392.363 325.538 392.319 333.202 393.985 340.786C395.026 345.524 396.704 349.99 398.851 354.261C401.146 358.823 403.878 363.133 406.838 367.391C416.938 381.899 429.449 396.019 435.116 412.913M195.851 -186.029C180.685 -166.199 173.934 -139.976 178.605 -115.158C181.58 -99.3133 189.823 -86.6974 192.684 -70.922C195.851 -53.5058 201.197 -36.5139 208.405 -20.3482C213.35 -9.25677 219.18 1.45349 225.794 11.6555C238.816 31.7387 254.881 49.8547 273.405 64.8968C284.234 73.6899 295.805 81.4421 307.768 88.4929C316.561 93.6652 325.574 98.4731 334.683 103.041C347.819 109.62 361.323 115.805 372.966 124.899C376.989 128.045 380.735 131.51 384.203 135.238C399.178 151.336 409.115 172.267 413.236 193.852C414.294 199.371 414.996 204.931 415.367 210.509C416.812 231.832 413.571 253.491 407.543 274.121C406.514 277.645 405.4 281.184 404.268 284.736C400.226 297.413 395.939 310.252 394.342 323.138C393.388 330.844 393.368 338.578 395.035 346.269C396.077 351.076 397.73 355.624 399.839 359.982C402.085 364.666 404.804 369.116 407.748 373.498C417.786 388.425 430.416 402.613 436.316 419.672M196.028 -184.829C180.358 -165.337 173.324 -139.243 177.943 -114.575C180.951 -98.5188 189.384 -85.7989 192.2 -69.7882C195.304 -52.1455 200.582 -34.8927 207.778 -18.4908C222.436 14.9189 245.105 44.8784 273.732 67.5561C292.989 82.8105 314.631 94.7952 336.798 105.385C350.342 111.854 364.254 117.91 376.197 127.002C398.152 143.716 411.831 169.885 416.536 197.074C421.241 224.263 417.524 252.409 409.382 278.774C401.995 302.7 390.849 327.259 396.084 351.746C402.072 379.75 427.91 399.443 437.514 426.422M102.171 -53.9847C127.001 -71.2368 158.001 -79.4038 188.108 -76.6236C196.673 -75.8325 205.472 -74.0563 212.432 -69.0025C232.543 -54.3985 231.397 -23.4098 233.832 -1.2809C236.772 25.4231 239.061 52.2455 244.177 78.6516C247.048 93.4763 252.028 109.794 265.303 116.991C278.746 124.277 295.157 119.363 310.075 116.005C327.458 112.092 345.726 110.562 363.036 114.786C380.346 119.01 396.638 129.558 404.998 145.293C411.544 157.616 412.836 172.024 412.847 185.978C412.872 222.642 404.813 259.289 389.409 292.561M102.825 -55.347C124.77 -70.5951 151.679 -77.5383 179.598 -76.3796C182.191 -76.2721 184.781 -76.1077 187.364 -75.8546C195.849 -75.0193 204.551 -73.2435 211.466 -68.2971C231.472 -53.9971 230.906 -23.8646 233.636 -1.96905C236.055 17.443 237.993 37.0339 241.016 56.6301C242.054 63.4352 243.213 70.223 244.552 76.9856C247.456 91.6543 252.383 107.774 265.335 115.07C278.449 122.456 294.431 118.037 308.976 115.12C325.925 111.724 343.739 110.628 360.655 115.09C366.544 116.643 372.317 118.938 377.694 121.927C387.756 127.518 396.431 135.539 401.867 145.676C408.397 157.852 409.874 172.024 410.138 185.715C410.682 213.428 406.686 240.964 398.302 267.128C395.801 274.936 392.91 282.62 389.629 290.148M103.478 -56.7077C124.691 -71.4477 150.684 -77.1617 178.936 -75.6566C181.501 -75.5194 184.063 -75.3481 186.618 -75.0832C195.024 -74.2021 203.629 -72.4284 210.499 -67.589C230.403 -53.5927 230.414 -24.3186 233.437 -2.65477C236.093 16.3757 238.152 35.7012 241.318 55.1882C242.389 61.9163 243.572 68.6314 244.925 75.3221C247.861 89.8353 252.737 105.758 265.364 113.151C278.151 120.637 293.706 116.712 307.876 114.236C324.389 111.355 341.751 110.696 358.27 115.396C364.021 117.033 369.665 119.386 374.928 122.407C384.778 128.055 393.31 136.044 398.733 146.059C405.246 158.09 406.907 172.024 407.427 185.453C408.496 212.641 405.278 239.484 397.745 265.129C395.497 272.781 392.867 280.325 389.846 287.735M104.132 -58.0699C124.614 -72.3008 149.687 -76.7916 178.275 -74.9352C180.811 -74.7706 183.346 -74.5918 185.872 -74.3143C194.198 -73.3892 202.706 -71.6142 209.531 -66.8838C229.33 -53.1914 229.917 -24.7778 233.238 -3.34304C236.128 15.3035 238.355 34.3572 241.618 53.7433C242.737 60.3929 243.93 67.0369 245.298 73.6566C248.265 88.0138 253.09 103.739 265.392 111.23C277.851 118.814 292.977 115.384 306.774 113.351C322.852 110.986 339.76 110.761 355.884 115.699C361.498 117.421 367.012 119.83 372.162 122.883C381.8 128.589 390.189 136.544 395.598 146.44C402.094 158.325 403.939 172.021 404.715 185.188C406.31 211.853 403.87 238.002 397.186 263.128C395.192 270.625 392.822 278.028 390.06 285.321M104.786 -59.4305C124.536 -73.1534 148.688 -76.4262 177.614 -74.2112C180.122 -74.0186 182.63 -73.8319 185.127 -73.5419C193.373 -72.5711 201.784 -70.7981 208.565 -66.1758C228.259 -52.7873 229.418 -25.2348 233.041 -4.02781C236.16 14.2342 238.529 33.023 241.921 52.3024C243.077 58.8749 244.289 65.4452 245.672 71.994C248.671 86.1958 253.443 101.723 265.423 109.312C277.553 116.996 292.251 114.061 305.675 112.469C321.318 110.621 337.773 110.83 353.501 116.006C358.979 117.811 364.361 120.278 369.4 123.364C378.824 129.127 387.07 137.05 392.468 146.825C398.949 158.565 400.977 172.023 402.008 184.928C404.128 211.067 402.466 236.524 396.634 261.131C394.894 268.474 392.784 275.736 390.283 282.911M105.44 -60.7917C124.458 -74.0065 147.688 -76.066 176.953 -73.4887C179.433 -73.2697 181.913 -73.0729 184.381 -72.772C192.548 -71.7571 200.863 -69.9835 207.598 -65.4686C227.188 -52.3841 228.916 -25.6949 232.842 -4.71337C236.188 13.1641 238.7 31.6866 242.222 50.8602C243.414 57.3557 244.646 63.8534 246.044 70.3303C249.075 84.376 253.795 99.7066 265.451 107.393C277.253 115.177 291.522 112.736 304.573 111.586C319.782 110.252 335.782 110.898 351.115 116.313C356.455 118.202 361.708 120.726 366.634 123.844C375.846 129.664 383.949 137.556 389.332 147.21C395.796 158.803 398.008 172.025 399.295 184.667C401.939 210.282 401.056 235.046 396.074 259.134C394.587 266.322 392.738 273.443 390.497 280.5M106.094 -62.154C124.381 -74.8608 146.687 -75.7148 176.292 -72.7681C178.743 -72.5236 181.197 -72.3173 183.637 -72.003C191.723 -70.9433 199.942 -69.1708 206.632 -64.7639C226.119 -51.9823 228.412 -26.1598 232.646 -5.40216C236.213 12.0893 238.874 30.348 242.527 49.4152C243.756 55.8336 245.008 62.2587 246.421 68.663C249.483 82.5533 254.152 97.6853 265.484 105.471C276.959 113.354 290.798 111.408 303.476 110.699C318.251 109.882 333.797 110.963 348.735 116.616C353.937 118.588 359.06 121.17 363.874 124.321C372.874 130.198 380.833 138.057 386.204 147.591C392.651 159.039 395.047 172.023 396.589 184.402C399.759 209.493 399.654 233.564 395.522 257.132C394.29 264.166 392.701 271.146 390.719 278.084M106.747 -63.5146C124.303 -75.7123 145.684 -75.3665 175.631 -72.0441C178.054 -71.7749 180.481 -71.5573 182.891 -71.2314C190.898 -70.1267 199.02 -68.3546 205.665 -64.0551C225.048 -51.5781 227.902 -26.6206 232.447 -6.08714C236.233 11.0175 239.042 29.012 242.827 47.9747C244.093 54.3167 245.366 60.6678 246.793 67.0009C249.887 80.7351 254.504 95.6701 265.512 103.554C276.658 111.536 290.071 110.084 302.374 109.817C316.714 109.515 331.805 111.031 346.347 116.923C351.413 118.978 356.406 121.618 361.106 124.801C369.894 130.734 377.709 138.562 383.067 147.976C389.498 159.277 392.078 172.025 393.877 184.143C397.571 208.709 398.245 232.087 394.963 255.137C393.984 262.015 392.657 268.856 390.935 275.676M107.401 -64.8769C124.225 -76.5666 144.679 -75.0279 174.97 -71.3228C177.364 -71.0298 179.763 -70.8004 182.146 -70.4617C190.072 -69.3122 198.098 -67.5405 204.698 -63.3491C223.976 -51.176 227.389 -27.0873 232.249 -6.77458C236.248 9.94243 239.212 27.6744 243.129 46.5301C244.431 52.7939 245.725 59.0734 247.167 65.3356C250.292 78.9144 254.858 93.6508 265.542 101.634C276.36 109.716 289.343 108.759 301.273 108.933C315.179 109.148 329.817 111.1 343.963 117.228C348.891 119.367 353.754 122.064 358.343 125.28C366.917 131.271 374.59 139.065 379.935 148.359C386.349 159.515 389.113 172.025 391.166 183.881C395.386 207.923 396.838 230.609 394.407 253.139C393.682 259.863 392.616 266.561 391.152 273.265M108.055 -66.2382C124.148 -77.4198 143.676 -74.6941 174.309 -70.6004C176.675 -70.2837 179.048 -70.0422 181.401 -69.692C189.248 -68.4974 197.176 -66.726 203.731 -62.6437C222.906 -50.7736 226.872 -27.5537 232.051 -7.4619C236.259 8.86747 239.379 26.3373 243.431 45.0872C244.768 51.2753 246.083 57.4808 247.54 63.6711C250.698 77.0938 255.211 91.6333 265.571 99.7149C276.061 107.895 288.616 107.434 300.173 108.049C313.643 108.781 327.828 111.167 341.578 117.535C346.368 119.757 351.102 122.512 355.578 125.76C363.941 131.808 371.469 139.57 376.801 148.742C383.2 159.752 386.148 172.025 388.456 183.619C393.201 207.136 395.431 229.129 393.849 251.139C393.378 257.708 392.573 264.267 391.369 270.852M108.708 -67.5997C124.069 -78.2732 142.67 -74.367 173.648 -69.878C175.986 -69.5392 178.331 -69.2848 180.657 -68.9218C188.424 -67.6824 196.256 -65.9122 202.766 -61.9362C221.836 -50.37 226.352 -28.0206 231.855 -8.14788C236.268 7.79389 239.548 25.0006 243.736 43.645C245.108 49.7557 246.445 55.889 247.916 62.0073C251.105 75.2746 255.567 89.6155 265.603 97.7961C275.766 106.075 287.892 106.109 299.076 107.166C312.111 108.413 325.841 111.235 339.198 117.841C343.851 120.147 348.455 122.959 352.818 126.239C360.968 132.344 368.353 140.074 373.672 149.127C380.054 159.992 383.186 172.026 385.75 183.358C391.02 206.35 394.029 227.649 393.298 249.142C393.08 255.556 392.536 261.974 391.592 268.441M109.362 -68.9611C123.992 -79.1265 141.666 -74.0472 172.987 -69.1557C175.297 -68.7948 177.614 -68.5259 179.911 -68.152C187.599 -66.8676 195.335 -65.0977 201.799 -61.2308C220.765 -49.9685 225.826 -28.4889 231.657 -8.83531C236.271 6.71791 239.715 23.6625 244.037 42.2011C245.443 48.235 246.803 54.2953 248.288 60.3418C251.51 73.453 255.919 87.5975 265.631 95.8745C275.465 104.253 287.163 104.78 297.973 106.281C310.574 108.044 323.85 111.301 336.811 118.144C341.326 120.533 345.8 123.402 350.05 126.716C357.988 132.878 365.23 140.575 370.536 149.508C376.901 160.228 380.218 172.025 383.036 183.094C388.831 205.562 392.619 226.169 392.738 247.142C392.775 253.401 392.491 259.678 391.806 266.026M110.016 -70.3216C123.914 -79.978 140.661 -73.7342 172.325 -68.4326C174.606 -68.0505 176.899 -67.7719 179.166 -67.3805C186.776 -66.0662 194.412 -64.2819 200.831 -60.523C219.693 -49.5653 225.295 -28.9554 231.457 -9.52125C236.266 5.64513 239.878 22.3271 244.338 40.7589C245.778 46.7162 247.161 52.7018 248.662 58.6783C251.915 71.6341 256.273 85.5801 265.661 93.956C275.167 102.434 286.436 103.456 296.872 105.397C309.039 107.677 321.86 111.368 334.426 118.45C338.803 120.923 343.148 123.85 347.285 127.196C355.01 133.416 362.109 141.081 367.402 149.892C373.751 160.465 377.251 172.025 380.325 182.832C386.645 204.775 391.211 224.689 392.18 245.143C392.47 251.247 392.447 257.385 392.021 263.615M110.669 -71.6839C123.836 -80.8322 139.658 -73.4306 171.664 -67.7102C173.917 -67.3078 176.181 -67.0139 178.42 -66.6107C185.951 -65.2523 193.49 -63.4674 199.865 -59.8165C218.624 -49.1619 224.759 -29.4229 231.26 -10.2083C236.26 4.57027 240.044 20.9907 244.64 39.3153C246.115 45.1948 247.52 51.1085 249.036 57.0131C252.321 69.8128 256.627 83.5618 265.692 92.0358C274.869 100.613 285.71 102.13 295.773 104.513C307.504 107.308 319.872 111.435 332.043 118.755C336.284 121.312 340.497 124.296 344.523 127.675C352.036 133.951 358.992 141.584 364.272 150.275C370.604 160.703 374.288 172.025 377.618 182.57C384.462 203.988 389.807 223.21 391.628 243.145C392.172 249.095 392.409 255.091 392.244 261.204M111.324 -73.0452C123.759 -81.6855 138.656 -73.1337 171.004 -66.9879C173.229 -66.565 175.466 -66.2557 177.676 -65.8399C185.127 -64.4375 192.569 -62.6529 198.898 -59.1095C217.552 -48.7587 224.218 -29.8897 231.062 -10.894C236.247 3.49847 240.207 19.6542 244.943 37.8733C246.452 43.6761 247.879 49.5168 249.41 55.3495C252.726 67.9938 256.981 81.5442 265.722 90.1172C274.571 98.794 284.983 100.806 294.673 103.63C305.97 106.941 317.884 111.504 329.659 119.062C333.762 121.703 337.845 124.744 341.759 128.156C349.059 134.488 355.872 142.089 361.139 150.661C367.454 160.942 371.323 172.028 374.908 182.311C382.278 203.205 388.4 221.734 391.071 241.15C391.869 246.944 392.366 252.801 392.461 258.795M111.977 -74.4068C123.68 -82.539 137.653 -72.8453 170.342 -66.2665C172.539 -65.8242 174.749 -65.4994 176.93 -65.0711C184.301 -63.6246 191.647 -61.8395 197.932 -58.4041C216.481 -48.3573 223.67 -30.3578 230.865 -11.5821C236.232 2.42437 240.37 18.3172 245.246 36.4298C246.788 42.1565 248.239 47.9235 249.784 53.6843C253.132 66.1725 257.335 79.526 265.752 88.197C274.273 96.9729 284.258 99.4792 293.573 102.746C304.435 106.572 315.896 111.571 327.275 119.366C331.241 122.091 335.194 125.189 338.995 128.634C346.083 135.024 352.752 142.593 358.005 151.043C364.304 161.178 368.357 172.026 372.197 182.047C380.091 202.417 386.993 220.253 390.514 239.149C391.567 244.789 392.325 250.504 392.678 256.38M112.631 -75.768C123.603 -83.3912 136.654 -72.5648 169.682 -65.5431C171.851 -65.082 174.034 -64.7401 176.186 -64.2993C183.477 -62.807 190.72 -61.0106 196.966 -57.6959C215.392 -47.9155 223.117 -30.8207 230.667 -12.2667C236.21 1.35603 240.531 16.9832 245.548 34.9879C247.123 40.6376 248.598 46.332 250.158 52.0209C253.537 64.3537 257.688 77.5085 265.782 86.2785C273.976 95.1544 283.531 98.155 292.473 101.862C302.9 106.205 313.906 111.638 324.89 119.673C328.719 122.48 332.542 125.636 336.23 129.113C343.105 135.561 349.632 143.097 354.872 151.427C361.155 161.417 365.392 172.027 369.488 181.786C377.907 201.63 385.587 218.774 389.958 237.152C391.264 242.636 392.283 248.211 392.896 253.971M113.284 -77.1295C123.524 -84.2447 135.656 -72.292 169.019 -64.8211C171.161 -64.3412 173.315 -63.9814 175.438 -63.5298C182.65 -61.9934 189.796 -60.1974 195.996 -56.9901C214.319 -47.5143 222.556 -31.2843 230.466 -12.9547C236.179 0.285096 240.687 15.6465 245.846 33.5444C247.453 39.1177 248.953 44.7388 250.528 50.3567C253.94 62.5334 258.039 75.4913 265.807 84.36C273.673 93.3356 282.8 96.8298 291.369 100.979C301.361 105.839 311.913 111.706 322.502 119.979C326.193 122.87 329.887 126.084 333.463 129.593C340.125 136.097 346.508 143.601 351.736 151.812C358.003 161.656 362.422 172.029 366.773 181.526C375.718 200.846 384.176 217.297 389.398 235.154C390.958 240.485 392.237 245.918 393.11 251.559M113.938 -78.4908C123.448 -85.0985 134.66 -72.0281 168.359 -64.0977C170.472 -63.6 172.599 -63.2231 174.694 -62.758C181.826 -61.1759 188.876 -59.381 195.032 -56.2817C213.25 -47.1088 221.992 -31.7426 230.271 -13.6397C236.15 -0.781166 240.848 14.3135 246.151 32.1022C247.789 37.5992 249.316 43.1461 250.904 48.6929C254.347 60.7142 258.394 73.4742 265.84 82.4412C273.377 91.5158 282.075 95.5053 290.271 100.096C299.83 105.47 309.928 111.774 320.122 120.286C323.675 123.26 327.238 126.531 330.703 130.073C337.153 136.634 343.392 144.106 348.608 152.195C354.858 161.894 359.461 172.029 364.068 181.264C373.538 200.059 382.775 215.817 388.845 233.156C390.66 238.331 392.199 243.624 393.332 249.148M114.592 -79.8531C123.37 -85.9527 133.667 -71.7738 167.699 -63.377C169.784 -62.8621 171.883 -62.4659 173.949 -61.9899C181.002 -60.3636 187.955 -58.5691 194.064 -55.5772C212.18 -46.709 221.419 -32.2025 230.072 -14.3281C236.113 -1.84813 241.004 12.9775 246.452 30.6582C248.122 36.0788 249.674 41.5525 251.278 47.0267C254.753 58.8919 258.748 71.4549 265.869 80.52C273.079 89.6937 281.349 94.1777 289.171 99.2107C298.295 105.101 307.939 111.839 317.736 120.589C321.153 123.647 324.586 126.976 327.937 130.55C334.175 137.169 340.271 144.608 345.472 152.577C351.705 162.13 356.493 172.028 361.356 181C371.35 199.271 381.366 214.336 388.287 231.156C390.355 236.176 392.156 241.329 393.549 246.734M115.245 -81.2137C123.292 -86.8043 132.677 -71.5279 167.037 -62.654C169.095 -62.122 171.166 -61.7069 173.204 -61.2184C180.176 -59.5465 187.033 -57.753 193.097 -54.8702C211.11 -46.3055 220.839 -32.656 229.875 -15.0145C236.074 -2.91143 241.16 11.6434 246.756 29.2157C248.457 34.5599 250.033 39.9593 251.652 45.3625C255.159 57.0723 259.103 69.4377 265.9 78.5998C272.781 87.8732 280.623 92.8518 288.072 98.3262C296.761 104.733 305.951 111.907 315.353 120.894C318.632 124.035 321.935 127.422 325.174 131.028C331.199 137.704 337.151 145.111 342.341 152.959C348.558 162.366 353.53 172.027 358.647 180.737C369.167 198.483 379.961 212.856 387.733 229.156C390.055 234.022 392.116 239.034 393.768 244.321M115.9 -82.575C123.215 -87.6576 131.69 -71.2907 166.377 -61.9308C168.408 -61.3833 170.451 -60.9487 172.459 -60.4477C179.351 -58.73 186.117 -56.9506 192.131 -54.1622C210.057 -45.9377 220.253 -33.1039 229.677 -15.6993C236.028 -3.96973 241.315 10.3107 247.057 27.7743C248.789 33.0429 250.391 38.3682 252.025 43.6996C255.564 55.2533 259.456 67.4207 265.929 76.6818C272.482 86.0543 279.895 91.5281 286.97 97.4431C295.224 104.366 303.961 111.975 312.967 121.201C316.108 124.426 319.282 127.87 322.409 131.509C328.221 138.242 334.03 145.616 339.207 153.345C345.408 162.606 350.563 172.03 355.936 180.478C366.98 197.699 378.554 211.379 387.175 227.16C389.751 231.871 392.073 236.742 393.984 241.912M116.552 -83.9366C123.136 -88.5111 130.705 -71.0632 165.714 -61.2086C167.718 -60.644 169.732 -60.1901 171.713 -59.6772C178.525 -57.9137 185.195 -56.1353 191.164 -53.456C208.986 -45.5361 219.659 -33.5489 229.477 -16.3869C235.976 -5.02752 241.465 8.97643 247.358 26.3305C249.121 31.5233 250.749 36.7747 252.398 42.0351C255.968 53.4334 259.809 65.4033 265.958 74.7624C272.183 84.2339 279.168 90.2029 285.869 96.5593C293.689 103.998 301.972 112.042 310.583 121.507C313.588 124.816 316.631 128.315 319.645 131.987C325.245 138.777 330.912 146.12 336.073 153.727C342.257 162.843 347.597 172.029 353.226 180.215C364.796 196.912 377.147 209.899 386.619 225.161C389.449 229.718 392.032 234.448 394.202 239.499M117.207 -85.2978C123.059 -89.3643 129.727 -70.8449 165.054 -60.487C167.031 -59.9069 169.017 -59.4324 170.968 -58.908C177.701 -57.0989 184.274 -55.3225 190.198 -52.7496C207.915 -45.1336 219.059 -33.9874 229.281 -17.0739C235.924 -6.08105 241.619 7.64279 247.661 24.8879C249.455 30.0051 251.11 35.1817 252.773 40.3709C256.375 51.6131 260.163 63.385 265.989 72.8432C271.885 82.4144 278.442 88.8764 284.771 95.6759C292.155 103.631 299.984 112.11 308.199 121.812C311.067 125.205 313.98 128.762 316.88 132.467C322.269 139.315 327.79 146.624 332.941 154.111C339.109 163.081 344.632 172.029 350.516 179.953C362.61 196.126 375.74 208.42 386.063 223.163C389.146 227.564 391.99 232.154 394.42 237.087M117.86 -86.6601C122.981 -90.2185 128.752 -70.6381 164.394 -59.7646C166.345 -59.1697 168.3 -58.6702 170.223 -58.1372C176.873 -56.27 183.353 -54.5071 189.231 -52.0424C206.844 -44.7294 218.451 -34.4197 229.082 -17.7596C235.866 -7.13055 241.768 6.3125 247.963 23.4451C249.786 28.4862 251.469 33.5892 253.146 38.7064C256.779 49.7932 260.517 61.3675 266.018 70.9237C271.587 80.594 277.715 87.5512 283.67 94.7921C290.62 103.263 297.994 112.177 305.815 122.118C308.545 125.594 311.328 129.21 314.117 132.946C319.292 139.851 324.671 147.127 329.808 154.495C335.959 163.319 341.667 172.031 347.806 179.692C360.425 195.34 374.333 206.942 385.506 221.165C388.844 225.412 391.948 229.86 394.638 234.676M118.514 -88.0207C122.903 -91.0701 127.781 -70.439 163.732 -59.0416C165.656 -58.4313 167.582 -57.9116 169.478 -57.3675C176.047 -55.4556 182.43 -53.693 188.264 -51.3371C205.773 -44.328 217.835 -34.8449 228.885 -18.4477C235.806 -8.17715 241.919 4.97982 248.266 22.0015C250.118 26.9676 251.828 31.9958 253.521 37.0405C257.187 47.9712 260.871 59.3483 266.049 69.0028C271.29 78.7721 276.99 86.2245 282.572 93.907C289.087 102.894 296.007 112.243 303.433 122.422C306.026 125.981 308.679 129.654 311.355 133.423C316.318 140.385 321.553 147.631 326.678 154.877C332.812 163.555 338.705 172.029 345.099 179.428C358.243 194.551 372.93 205.46 384.953 219.166C388.544 223.257 391.909 227.566 394.858 232.263M119.168 -89.383C122.825 -91.9243 126.816 -70.2509 163.07 -58.3203C164.968 -57.6952 166.865 -57.1543 168.733 -56.5977C175.223 -54.6407 181.509 -52.8785 187.297 -50.63C204.702 -43.9249 217.213 -35.261 228.687 -19.1334C235.742 -9.21672 242.066 3.65079 248.568 20.5585C250.449 25.4502 252.187 30.4032 253.894 35.377C257.592 46.1523 261.225 57.3317 266.078 67.0849C270.992 76.9532 276.262 84.9009 281.47 93.0238C287.551 102.526 294.017 112.311 301.048 122.729C303.502 126.372 306.026 130.103 308.589 133.904C313.34 140.923 318.432 148.135 323.543 155.261C329.661 163.793 335.738 172.03 342.387 179.167C356.057 193.765 371.522 203.981 384.395 217.167C388.24 221.103 391.866 225.272 395.075 229.851M119.821 -90.7436C122.747 -92.7768 125.855 -70.073 162.409 -57.5962C164.281 -56.9573 166.149 -56.3943 167.987 -55.8262C174.396 -53.8244 180.587 -52.0633 186.33 -49.9228C203.632 -43.5223 216.584 -35.6679 228.488 -19.82C235.674 -10.2525 242.21 2.32059 248.868 19.1163C250.777 23.9327 252.544 28.8113 254.266 33.7132C257.996 44.3324 261.576 55.3139 266.106 65.1661C270.691 75.1342 275.535 83.5757 280.368 92.1408C286.014 102.16 292.027 112.38 298.663 123.035C300.98 126.762 303.373 130.549 305.825 134.384C310.364 141.46 315.313 148.64 320.411 155.646C326.513 164.033 332.773 172.032 339.677 178.906C353.871 192.981 370.116 202.503 383.839 215.17C387.938 218.952 391.824 222.979 395.293 227.441M120.475 -92.1058C122.669 -93.631 124.901 -69.9057 161.749 -56.8754C163.595 -56.2224 165.432 -55.638 167.243 -55.0571C173.573 -53.0102 179.667 -51.2495 185.364 -49.2174C202.561 -43.1198 215.949 -36.0666 228.291 -20.508C235.606 -11.285 242.355 0.990349 249.172 17.6721C251.11 22.4142 252.905 27.2157 254.641 32.0474C258.402 42.5112 261.932 53.295 266.137 63.2442C270.394 73.3114 274.808 82.2482 279.269 91.2547C284.481 101.79 290.039 112.445 296.278 123.338C298.458 127.148 300.721 130.994 303.06 134.861C307.385 141.994 312.192 149.143 317.277 156.028C323.363 164.269 329.806 172.03 336.967 178.644C351.685 192.193 368.709 201.023 383.283 213.172C387.635 216.798 391.783 220.685 395.511 225.028M121.129 -93.4671C122.592 -94.4833 123.954 -69.7486 161.088 -56.1532C162.909 -55.487 164.716 -54.8799 166.497 -54.2874C172.747 -52.1957 178.744 -50.4354 184.398 -48.511C201.491 -42.7174 215.309 -36.4545 228.093 -21.1945C235.536 -12.3104 242.498 -0.335997 249.474 16.2292C251.439 20.8965 253.264 25.6231 255.014 30.3828C258.807 40.6905 262.285 51.2764 266.166 61.3246C270.095 71.4908 274.081 80.9229 278.169 90.3709C282.945 101.422 288.05 112.513 293.894 123.644C295.937 127.537 298.069 131.44 300.297 135.34C304.41 142.53 309.072 149.646 314.144 156.411C320.213 164.506 326.841 172.03 334.257 178.381C349.501 191.406 367.302 199.543 382.726 211.172C387.333 214.644 391.741 218.39 395.728 222.616M121.783 -94.8278C122.514 -95.3358 123.012 -69.6023 160.427 -55.4292C162.222 -54.7488 163.999 -54.1202 165.752 -53.5148C171.922 -51.3791 177.823 -49.6182 183.431 -47.8022C200.419 -42.3125 214.663 -36.828 227.896 -21.8792C235.465 -13.3281 242.62 -1.65184 249.777 14.7882C251.764 19.3843 253.623 24.0325 255.389 28.7202C259.213 38.8725 262.639 49.2608 266.197 59.4071C269.797 69.673 273.354 79.5987 277.07 89.4891C281.411 101.056 286.062 112.582 291.511 123.952C293.415 127.929 295.418 131.889 297.533 135.821C301.434 143.069 305.953 150.152 311.012 156.797C317.064 164.746 323.876 172.033 331.548 178.122C347.316 190.622 365.896 198.067 382.17 209.176C387.03 212.493 391.699 216.099 395.946 220.206M122.436 -96.19C122.436 -96.19 122.077 -69.4676 159.765 -54.7077C197.453 -39.9479 224.308 -44.3138 250.078 13.3444C267.885 53.1881 275.082 97.3111 294.768 136.298C302.868 152.339 314.282 167.16 328.837 177.858C345.131 189.834 364.489 196.585 381.614 207.176C386.728 210.339 391.657 213.803 396.164 217.793" stroke="white" stroke-width="0.119242" stroke-miterlimit="10"/>
</g>
<defs>
<clipPath id="clip0_98_208">
<rect width="367" height="503" rx="20" fill="white"/>
</clipPath>
</defs>
</svg>
